<svg width="244" height="244" viewBox="0 0 244 244" fill="none" xmlns="http://www.w3.org/2000/svg">
<path d="M200.941 0H43.0588C19.2781 0 0 19.2781 0 43.0588V200.941C0 224.722 19.2781 244 43.0588 244H200.941C224.722 244 244 224.722 244 200.941V43.0588C244 19.2781 224.722 0 200.941 0Z" fill="#2C4147"/>
<path fill-rule="evenodd" clip-rule="evenodd" d="M129.557 87.912V48.9797H144.741C156.977 48.9797 165.43 57.3779 165.43 68.3346V68.4459C165.43 79.4025 156.977 87.912 144.741 87.912H129.557ZM144.741 56.7105H138.122V80.1812H144.741C151.748 80.1812 156.476 75.4537 156.476 68.5571V68.4459C156.476 61.5493 151.748 56.7105 144.741 56.7105Z" fill="white"/>
<path fill-rule="evenodd" clip-rule="evenodd" d="M102.986 88.5792C90.9727 88.5792 82.3519 79.6247 82.3519 68.5568V68.4456C82.3519 57.3777 91.0839 48.312 103.097 48.312C115.111 48.312 123.731 57.2665 123.731 68.3344V68.4456C123.731 79.5135 114.999 88.5792 102.986 88.5792ZM103.097 80.6815C109.994 80.6815 114.777 75.231 114.777 68.5568V68.4456C114.777 61.7715 109.883 56.2097 102.986 56.2097C96.0895 56.2097 91.3064 61.6602 91.3064 68.3344V68.4456C91.3064 75.1197 96.2007 80.6815 103.097 80.6815Z" fill="white"/>
<path fill-rule="evenodd" clip-rule="evenodd" d="M64.8198 88.7085C72.3281 88.7085 76.7776 86.0389 80.782 81.7563L75.3315 76.2502C72.2725 79.0311 69.5473 80.8108 65.0979 80.8108C58.4237 80.8108 53.8075 75.2491 53.8075 68.5749V68.4637C53.8075 61.7896 58.535 56.3391 65.0979 56.3391C68.9911 56.3391 72.0501 58.0076 75.0534 60.7328L80.5039 54.4481C76.8888 50.8885 72.495 48.4413 65.1535 48.4413C53.1957 48.4413 44.853 57.507 44.853 68.5749V68.6862C44.853 79.8653 53.3625 88.7085 64.8198 88.7085Z" fill="white"/>
<path fill-rule="evenodd" clip-rule="evenodd" d="M171.256 87.912H200.9V80.2924H179.765V72.1166H198.119V64.497H179.765V56.5993H200.622V48.9797H171.256V87.912Z" fill="white"/>
<path fill-rule="evenodd" clip-rule="evenodd" d="M80.7351 141.726L97.4204 102.516H105.318L122.003 141.726H113.049L109.489 132.995H93.0266L89.4671 141.726H80.7351ZM96.0856 125.431H106.43L101.258 112.805L96.0856 125.431Z" fill="white"/>
<path fill-rule="evenodd" clip-rule="evenodd" d="M48.441 141.197V102.265H64.3477C73.6358 102.265 79.2532 107.771 79.2532 115.724V115.836C79.2532 124.846 72.2454 129.517 63.5134 129.517H57.0062V141.197H48.441ZM57.0062 121.898H63.7915C68.0741 121.898 70.5769 119.339 70.5769 116.002V115.891C70.5769 112.054 67.9072 109.996 63.6247 109.996H57.0062V121.898Z" fill="white"/>
<path fill-rule="evenodd" clip-rule="evenodd" d="M136.23 141.735H144.795V110.701H156.642V102.803H124.384V110.701H136.23V141.735Z" fill="white"/>
<path fill-rule="evenodd" clip-rule="evenodd" d="M165.058 141.197H173.624V125.569H189.419V141.197H197.984V102.265H189.419V117.671H173.624V102.265H165.058V141.197Z" fill="white"/>
<path fill-rule="evenodd" clip-rule="evenodd" d="M129.094 191.971V153.038H146.892C151.841 153.038 155.679 154.429 158.238 156.987C160.407 159.156 161.575 162.215 161.575 165.886V165.997C161.575 172.282 158.182 176.231 153.232 178.066L162.743 191.971H152.731L144.389 179.512H137.659V191.971H129.094ZM137.659 171.948H146.335C150.507 171.948 152.898 169.724 152.898 166.442V166.331C152.898 162.66 150.34 160.769 146.168 160.769H137.659V171.948Z" fill="#00C98E"/>
<path fill-rule="evenodd" clip-rule="evenodd" d="M187.32 192.767C194.439 192.767 199.946 189.986 203.95 186.594V169.686H187.042V177.083H195.663V182.645C193.494 184.202 190.713 184.981 187.598 184.981C180.702 184.981 175.807 179.753 175.807 172.634V172.522C175.807 165.904 180.757 160.398 186.987 160.398C191.492 160.398 194.161 161.844 197.165 164.347L202.56 157.839C198.499 154.391 194.273 152.5 187.265 152.5C175.474 152.5 166.853 161.566 166.853 172.634V172.745C166.853 184.258 175.196 192.767 187.32 192.767Z" fill="#00C98E"/>
<path fill-rule="evenodd" clip-rule="evenodd" d="M100.729 192.638C88.7155 192.638 80.0947 183.684 80.0947 172.616V172.504C80.0947 161.437 88.8267 152.371 100.84 152.371C112.854 152.371 121.474 161.325 121.474 172.393V172.504C121.474 183.572 112.742 192.638 100.729 192.638ZM100.84 184.74C107.737 184.74 112.52 179.29 112.52 172.616V172.504C112.52 165.83 107.625 160.269 100.729 160.269C93.8323 160.269 89.0492 165.719 89.0492 172.393V172.504C89.0492 179.179 93.9435 184.74 100.84 184.74Z" fill="#00C98E"/>
<path fill-rule="evenodd" clip-rule="evenodd" d="M61.5373 188.382C62.0333 188.382 62.4354 187.966 62.4354 187.488V178.694L71.3308 183.142C71.7687 183.361 72.2973 183.191 72.5196 182.746L74.9571 177.872C75.1758 177.434 74.9851 176.896 74.5602 176.683L65.6648 172.235L74.5602 167.788C74.9981 167.569 75.1794 167.044 74.9571 166.599L72.5196 161.724C72.3009 161.287 71.7557 161.116 71.3308 161.329L62.4354 165.777V156.982C62.4354 156.489 62.0507 156.088 61.5373 156.088H56.8747C56.3787 156.088 55.9766 156.505 55.9766 156.982V165.777L47.0812 161.329C46.6433 161.11 46.1147 161.28 45.8924 161.724L43.4549 166.599C43.2362 167.037 43.4269 167.575 43.8518 167.788L52.7472 172.235L43.8518 176.683C43.4139 176.902 43.2326 177.427 43.4549 177.872L45.8924 182.746C46.1111 183.184 46.6563 183.354 47.0812 183.142L55.9766 178.694V187.488C55.9766 187.982 56.3613 188.382 56.8747 188.382H61.5373Z" fill="#00C98E"/>
</svg>
